# xmcd
#
# Track frame offsets:
# 150
# 13739
# 28715
# 41865
# 55117
# 68992
# 82728
# 96186
# 112978
# 130895
# 143372
# 154656
# 166724
# 180684
# 193982
# 208009
# 222614
# 238209
# 253374
# 268825
# 283416
# 297339
# 310607
# 322679
#
# Disc length: 4474 seconds
#
#
# Revision: 0
# Processed by: cddbd v1.5.2PL0 Copyright (c) Steve Scherf et al.
# Submitted via: FreeRIP 2.96 
#
DISCID=68117818
DTITLE=Val McDermid - Ein kalter Strom CD4v6
DYEAR=2007
DGENRE=Hörbuch
TTITLE0=078 Ein kalter Strom
TTITLE1=079 Ein kalter Strom
TTITLE2=080 Ein kalter Strom
TTITLE3=081 Ein kalter Strom
TTITLE4=082 Ein kalter Strom
TTITLE5=083 Ein kalter Strom
TTITLE6=084 Ein kalter Strom
TTITLE7=085 Ein kalter Strom
TTITLE8=086 Ein kalter Strom
TTITLE9=087 Ein kalter Strom
TTITLE10=088 Ein kalter Strom
TTITLE11=089 Ein kalter Strom
TTITLE12=090 Ein kalter Strom
TTITLE13=091 Ein kalter Strom
TTITLE14=092 Ein kalter Strom
TTITLE15=093 Ein kalter Strom
TTITLE16=094 Ein kalter Strom
TTITLE17=095 Ein kalter Strom
TTITLE18=096 Ein kalter Strom
TTITLE19=097 Ein kalter Strom
TTITLE20=098 Ein kalter Strom
TTITLE21=099 Ein kalter Strom
TTITLE22=100 Ein kalter Strom
TTITLE23=101 Ein kalter Strom
EXTD=gelesen von Elke Schützhold
EXTT0=
EXTT1=
EXTT2=
EXTT3=
EXTT4=
EXTT5=
EXTT6=
EXTT7=
EXTT8=
EXTT9=
EXTT10=
EXTT11=
EXTT12=
EXTT13=
EXTT14=
EXTT15=
EXTT16=
EXTT17=
EXTT18=
EXTT19=
EXTT20=
EXTT21=
EXTT22=
EXTT23=
PLAYORDER=
